HIERARCHY
ROOT Hips
{
	OFFSET 54.365898 -17.656916 94.134399
	CHANNELS 6 Xposition Yposition Zposition Xrotation Yrotation Zrotation
	JOINT spine
	{
		OFFSET 0.000000 -0.448574 7.800591
		CHANNELS 3 Xrotation Yrotation Zrotation
		JOINT spine1
		{
			OFFSET 0.000000 -0.000002 10.136398
			CHANNELS 3 Xrotation Yrotation Zrotation
			JOINT spine2
			{
				OFFSET 0.000000 0.000000 9.712509
				CHANNELS 3 Xrotation Yrotation Zrotation
				JOINT Neck
				{
					OFFSET 0.000000 -1.188875 24.936104
					CHANNELS 3 Xrotation Yrotation Zrotation
					JOINT Head
					{
						OFFSET 0.000000 0.000000 7.533844
						CHANNELS 3 Xrotation Yrotation Zrotation
						End Site
						{
							OFFSET 0.000000 6.014017 18.236099
						}
					}
				}
				JOINT RightShoulder
				{
					OFFSET -4.089649 0.569454 10.488808
					CHANNELS 3 Xrotation Yrotation Zrotation
					JOINT RightArm
					{
						OFFSET 0.000000 -0.000002 13.757004
						CHANNELS 3 Xrotation Yrotation Zrotation
						JOINT RightArmRoll
						{
							OFFSET 0.000000 -0.000002 6.944778
							CHANNELS 3 Xrotation Yrotation Zrotation
							JOINT RightForeArm
							{
								OFFSET 0.000000 -0.000004 20.227692
								CHANNELS 3 Xrotation Yrotation Zrotation
								JOINT RightForeArmRoll
								{
									OFFSET 0.000000 0.000000 7.793121
									CHANNELS 3 Xrotation Yrotation Zrotation
									JOINT RightHand
									{
										OFFSET 0.000000 -0.000004 15.639099
										CHANNELS 3 Xrotation Yrotation Zrotation
										End Site
										{
											OFFSET 0.000000 0.000000 0.100006
										}
									}
								}
							}
						}
					}
				}
				JOINT LeftShoulder
				{
					OFFSET 4.089649 0.569454 10.488808
					CHANNELS 3 Xrotation Yrotation Zrotation
					JOINT LeftArm
					{
						OFFSET 0.000000 -0.000002 13.757004
						CHANNELS 3 Xrotation Yrotation Zrotation
						JOINT LeftArmRoll
						{
							OFFSET 0.000000 -0.000002 6.944778
							CHANNELS 3 Xrotation Yrotation Zrotation
							JOINT LeftForeArm
							{
								OFFSET 0.000000 -0.000004 20.227692
								CHANNELS 3 Xrotation Yrotation Zrotation
								JOINT LeftForeArmRoll
								{
									OFFSET 0.000000 0.000000 7.793121
									CHANNELS 3 Xrotation Yrotation Zrotation
									JOINT LeftHand
									{
										OFFSET 0.000000 -0.000004 15.639099
										CHANNELS 3 Xrotation Yrotation Zrotation
										End Site
										{
											OFFSET 0.000000 0.000000 0.100006
										}
									}
								}
							}
						}
					}
				}
			}
		}
	}
	JOINT RightUpLeg
	{
		OFFSET -6.914162 1.063580 -1.267883
		CHANNELS 3 Xrotation Yrotation Zrotation
		JOINT RightUpLegRoll
		{
			OFFSET 0.000000 -0.000002 18.337799
			CHANNELS 3 Xrotation Yrotation Zrotation
			JOINT RightLeg
			{
				OFFSET 0.000000 0.000002 -22.708496
				CHANNELS 3 Xrotation Yrotation Zrotation
				JOINT RightLegRoll
				{
					OFFSET 0.000000 -0.000004 22.782799
					CHANNELS 3 Xrotation Yrotation Zrotation
					JOINT RightFoot
					{
						OFFSET 0.000000 -0.000002 18.962898
						CHANNELS 3 Xrotation Yrotation Zrotation
						JOINT RightToeBase
						{
							OFFSET 0.000000 -0.000002 15.852005
							CHANNELS 3 Xrotation Yrotation Zrotation
							End Site
							{
								OFFSET 0.006718 0.884890 7.677017
							}
						}
					}
				}
			}
		}
	}
	JOINT LeftUpLeg
	{
		OFFSET 6.914162 1.063580 -1.267883
		CHANNELS 3 Xrotation Yrotation Zrotation
		JOINT LeftUpLegRoll
		{
			OFFSET 0.000000 -0.000002 18.337898
			CHANNELS 3 Xrotation Yrotation Zrotation
			JOINT LeftLeg
			{
				OFFSET 0.000000 -0.000004 22.708397
				CHANNELS 3 Xrotation Yrotation Zrotation
				JOINT LeftLegRoll
				{
					OFFSET 0.000000 -0.000004 22.993408
					CHANNELS 3 Xrotation Yrotation Zrotation
					JOINT LeftFoot
					{
						OFFSET 0.000000 -0.000004 18.752197
						CHANNELS 3 Xrotation Yrotation Zrotation
						JOINT LeftToeBase
						{
							OFFSET 0.000000 -0.000002 15.852005
							CHANNELS 3 Xrotation Yrotation Zrotation
							End Site
							{
								OFFSET -0.030113 0.884892 7.677017
							}
						}
					}
				}
			}
		}
	}
}
MOTION
Frames: 9
Frame Time: 0.041667
54.507603 -16.956316 94.019897 -6.037555 -0.188178 -0.985281 -0.664121 0.174124 0.305337 2.686010 0.348054 0.612313 4.331063 0.355534 0.608102 20.893952 2.061319 -2.298923 -18.216961 -10.054354 -2.793698 -22.850741 -79.295873 -26.505999 -83.566436 -100.531861 -66.951741 0.000001 -0.000006 0.000001 11.975896 -10.444499 0.094361 -0.000004 0.000001 -2.999988 -5.000168 -7.998764 0.000130 5.410252 68.366171 -4.873063 18.622188 102.035103 -36.590423 0.000001 0.000021 0.000001 14.110757 4.583327 0.586814 -0.000003 -0.000006 3.000001 -5.000187 7.999488 -0.000071 0.620060 -174.282331 1.181626 -179.999991 0.000005 -0.885994 168.374408 0.217449 -0.911266 -0.000001 0.000003 -0.035752 70.078369 5.167381 6.628004 25.457665 -7.355618 0.001072 1.238098 179.142202 6.501732 -0.000005 -0.000004 -1.429261 -12.710612 4.090062 0.744572 -0.000005 0.000000 -0.273617 73.394310 -7.287041 -0.640739 25.456955 7.355615 -0.000000 
54.507706 -16.945015 94.017097 -6.042752 -0.188654 -0.974350 -0.665224 0.174124 0.305890 2.682919 0.346939 0.612880 4.327963 0.354432 0.608679 20.916811 2.057008 -2.296208 -18.225566 -10.052056 -2.791307 -22.870627 -79.308701 -26.526735 -83.525099 -100.608727 -66.951099 -0.000000 -0.000006 0.000000 11.960769 -10.458492 0.095661 -0.000006 0.000001 -2.999989 -5.000169 -7.998761 0.000132 5.444979 68.377078 -4.910057 18.351187 102.016648 -36.284376 0.000001 0.000021 0.000000 14.142104 4.590392 0.585602 -0.000003 -0.000007 2.999999 -5.000188 7.999488 -0.000070 0.625593 -174.283342 1.184136 -179.999991 0.000005 -0.885993 168.374422 0.214506 -0.911871 -0.000001 0.000003 -0.035751 70.078274 5.168204 6.628851 25.457667 -7.355618 0.001072 1.231580 179.143199 6.506609 -0.000006 -0.000004 -1.429511 -12.725255 4.084150 0.744889 -0.000005 0.000000 -0.273751 73.400403 -7.284907 -0.646331 25.456952 7.355615 -0.000000 
54.510605 -16.947912 94.018707 -6.047883 -0.189056 -0.963360 -0.666319 0.174124 0.306457 2.679798 0.345776 0.613444 4.324852 0.353282 0.609255 20.939967 2.052710 -2.293488 -18.234182 -10.049758 -2.788903 -22.890409 -79.321439 -26.547381 -83.481830 -100.685758 -66.947322 -0.000000 -0.000005 0.000001 11.944806 -10.471929 0.096789 -0.000005 0.000001 -2.999991 -5.000165 -7.998763 0.000130 5.479182 68.387597 -4.946526 18.076423 101.999299 -35.974962 0.000001 0.000021 0.000001 14.171541 4.597212 0.584433 -0.000003 -0.000006 3.000002 -5.000187 7.999488 -0.000071 0.631060 -174.283342 1.186641 -179.999991 0.000005 -0.885994 168.374408 0.211576 -0.912475 -0.000001 0.000003 -0.035751 70.078164 5.169025 6.629702 25.457665 -7.355619 0.001073 1.224747 179.144196 6.511526 -0.000005 -0.000004 -1.429760 -12.740301 4.078141 0.745204 -0.000005 0.000000 -0.273884 73.406720 -7.282750 -0.652003 25.456953 7.355614 -0.000000 
54.516003 -16.938416 93.981400 -6.052953 -0.189407 -0.952331 -0.667413 0.174125 0.307033 2.676679 0.344579 0.614006 4.321722 0.352098 0.609830 20.963121 2.048442 -2.290765 -18.242901 -10.047453 -2.786507 -22.910177 -79.334061 -26.567996 -83.437174 -100.762946 -66.941222 -0.000000 -0.000006 0.000001 11.928010 -10.484911 0.097736 -0.000006 0.000001 -2.999990 -5.000168 -7.998762 0.000131 5.513020 68.397822 -4.982631 17.799844 101.982142 -35.663945 0.000001 0.000021 0.000004 14.199572 4.603860 0.583294 -0.000004 -0.000008 3.000002 -5.000186 7.999488 -0.000071 0.636474 -174.284339 1.189109 -179.999991 0.000005 -0.884996 168.374518 0.208632 -0.913080 -0.000000 0.000003 -0.035752 70.077973 5.169904 6.630666 25.457669 -7.355619 0.001072 1.217716 179.145193 6.516460 -0.000006 -0.000004 -1.430001 -12.755642 4.072070 0.745522 -0.000005 0.000000 -0.274013 73.413114 -7.280556 -0.657767 25.456948 7.355614 -0.000000 
54.514603 -16.934216 93.987305 -6.057994 -0.189730 -0.941279 -0.668503 0.174125 0.307617 2.673538 0.343361 0.614568 4.318592 0.350895 0.610403 20.986485 2.044173 -2.288056 -18.251614 -10.045149 -2.784106 -22.929993 -79.346690 -26.588670 -83.391631 -100.840168 -66.933668 0.000000 -0.000007 0.000001 11.910903 -10.497609 0.098610 -0.000007 0.000001 -2.999990 -5.000170 -7.998761 0.000131 5.546650 68.407848 -5.018524 17.521766 101.965230 -35.351659 0.000002 0.000022 0.000001 14.226897 4.610415 0.582165 -0.000002 -0.000007 3.000003 -5.000187 7.999488 -0.000070 0.641862 -174.285350 1.191574 -179.999991 0.000005 -0.884996 168.374613 0.205689 -0.912689 -0.000001 0.000002 -0.035752 70.077884 5.170798 6.631526 25.457669 -7.355619 0.001072 1.210554 179.145193 6.521388 -0.000005 -0.000004 -1.430240 -12.771085 4.065960 0.745832 -0.000005 0.000000 -0.274141 73.419616 -7.278350 -0.663523 25.456950 7.355613 0.000000 
54.516502 -16.942318 94.020798 -6.063022 -0.190046 -0.930221 -0.669588 0.174125 0.308200 2.670407 0.342138 0.615128 4.315461 0.349686 0.610976 21.009742 2.039904 -2.285320 -18.260231 -10.042853 -2.781685 -22.949857 -79.359312 -26.609386 -83.346340 -100.917513 -66.926141 -0.000001 -0.000005 0.000001 11.893789 -10.510212 0.099463 -0.000004 0.000000 -2.999991 -5.000169 -7.998762 0.000131 5.580257 68.417868 -5.054398 17.241269 101.949507 -35.037033 0.000001 0.000021 0.000000 14.253927 4.616942 0.581042 -0.000003 -0.000007 3.000001 -5.000188 7.999488 -0.000070 0.647245 -174.286361 1.194039 -179.999991 0.000005 -0.884996 168.374723 0.202758 -0.913292 -0.000000 0.000003 -0.035751 70.077700 5.171710 6.632396 25.457664 -7.355618 0.001072 1.203375 179.146190 6.526336 -0.000005 -0.000004 -1.430490 -12.786528 4.059850 0.746137 -0.000004 0.000000 -0.274268 73.426125 -7.276145 -0.669377 25.456952 7.355614 -0.000000 
54.515804 -16.934214 94.007698 -6.068077 -0.190380 -0.919175 -0.670680 0.174125 0.308781 2.667277 0.340925 0.615691 4.312330 0.348486 0.611550 21.033101 2.035646 -2.282607 -18.268941 -10.040548 -2.779284 -22.969766 -79.371934 -26.630146 -83.301192 -100.994872 -66.919011 -0.000000 -0.000007 0.000001 11.876784 -10.523008 0.100340 -0.000005 0.000000 -2.999991 -5.000167 -7.998761 0.000131 5.614024 68.427977 -5.090438 16.961597 101.933135 -34.723145 0.000001 0.000021 0.000002 14.281456 4.623519 0.579887 -0.000003 -0.000008 3.000002 -5.000188 7.999488 -0.000071 0.652639 -174.286374 1.196506 -179.999991 0.000005 -0.884996 168.374736 0.199814 -0.913898 -0.000001 0.000002 -0.035752 70.077611 5.172601 6.633356 25.457667 -7.355619 0.001073 1.196252 179.146190 6.531251 -0.000005 -0.000004 -1.430731 -12.801971 4.053749 0.746442 -0.000005 0.000000 -0.274396 73.432627 -7.273941 -0.675133 25.456952 7.355614 -0.000000 
54.516304 -16.926817 94.018311 -6.073153 -0.190754 -0.908157 -0.671772 0.174125 0.309356 2.664157 0.339736 0.616253 4.309210 0.347312 0.612124 21.056259 2.031371 -2.279868 -18.277656 -10.038247 -2.776887 -22.989879 -79.384652 -26.651108 -83.257697 -101.072115 -66.914141 -0.000000 -0.000006 0.000003 11.860190 -10.536080 0.101297 -0.000005 0.000001 -2.999991 -5.000170 -7.998761 0.000130 5.648090 68.438270 -5.126779 16.681643 101.917064 -34.408864 0.000001 0.000020 0.000000 14.309893 4.630214 0.578716 -0.000002 -0.000007 3.000002 -5.000188 7.999489 -0.000070 0.658071 -174.287371 1.198986 -179.999991 0.000005 -0.884996 168.374832 0.196870 -0.913493 -0.000001 0.000002 -0.035752 70.077413 5.173480 6.634222 25.457676 -7.355617 0.001072 1.189284 179.147174 6.536176 -0.000005 -0.000004 -1.430981 -12.817215 4.047702 0.746744 -0.000005 0.000000 -0.274525 73.439034 -7.271770 -0.680801 25.456950 7.355613 -0.000000 
54.517105 -16.924013 94.016899 -6.078302 -0.191190 -0.897186 -0.672874 0.174125 0.309918 2.661046 0.338588 0.616816 4.306099 0.346177 0.612700 21.079320 2.027090 -2.277137 -18.286273 -10.035946 -2.774483 -23.009963 -79.397384 -26.672054 -83.215384 -101.149453 -66.911422 0.000000 -0.000006 -0.000001 11.844438 -10.549711 0.102420 -0.000004 0.000001 -2.999989 -5.000167 -7.998761 0.000129 5.682643 68.448843 -5.163615 16.400635 101.902297 -34.093289 0.000000 0.000020 0.000001 14.339939 4.637109 0.577485 -0.000004 -0.000008 3.000001 -5.000188 7.999488 -0.000069 0.663554 -174.288382 1.201480 -179.999991 0.000005 -0.884996 168.374832 0.193941 -0.914096 -0.000000 0.000003 -0.035751 70.077317 5.174302 6.635069 25.457672 -7.355618 0.001072 1.182541 179.148171 6.541078 -0.000006 -0.000004 -1.431219 -12.832156 4.041719 0.747042 -0.000004 -0.000000 -0.274659 73.445243 -7.269623 -0.686484 25.456955 7.355613 0.000000 
